<svg xmlns="http://www.w3.org/2000/svg" viewBox="0 0 96 96" role="img" aria-labelledby="title desc">
  <title id="title">Unicorns Hub logo</title>
  <desc id="desc">Minimal unicorn and digital network symbol for Unicorns Hub.</desc>
  <rect width="96" height="96" rx="26" fill="#18181b"/>
  <rect x="1" y="1" width="94" height="94" rx="25" fill="#18181b" stroke="rgba(255,255,255,0.12)" stroke-width="2"/>
  <circle cx="48" cy="48" r="35" fill="#7c3aed" opacity="0.11"/>
  <g transform="translate(16 12)">
    <path d="M18 44C21.4 30.4 31.6 22.5 46.3 19.1C40.6 28.2 39.5 37.2 47.5 48.5C36.1 54.1 25.9 52.9 18 44Z" fill="#c4b5fd"/>
    <path d="M29.3 22.5L40.6 6.6L41.8 27" fill="#a855f7"/>
    <path d="M40.6 6.6L45.1 13.4L41.8 27" stroke="#fff" stroke-opacity="0.42" stroke-width="1.8" stroke-linecap="round"/>
    <path d="M19.1 44C24.8 42.9 31.6 45.2 37.3 51.9" stroke="#09090b" stroke-opacity="0.45" stroke-width="2.7" stroke-linecap="round"/>
    <path d="M32.7 33.8C36.1 32.7 39.5 32.7 42.9 33.8" stroke="#09090b" stroke-opacity="0.52" stroke-width="2.5" stroke-linecap="round"/>
    <path d="M13.5 23.6C19.1 25.9 23.7 29.3 27.1 35" stroke="#22d3ee" stroke-opacity="0.48" stroke-width="1.6" stroke-linecap="round"/>
    <path d="M51.9 27C56.4 30.4 58.7 34.9 59.8 40.6" stroke="#d946ef" stroke-opacity="0.52" stroke-width="1.6" stroke-linecap="round"/>
    <circle cx="12.4" cy="22.5" r="2.3" fill="#22d3ee"/>
    <circle cx="59.8" cy="41.8" r="2.3" fill="#d946ef"/>
    <circle cx="51.9" cy="27" r="1.8" fill="#a855f7"/>
    <path d="M50.8 8.9L53 13.4L57.6 15.7L53 17.9L50.8 22.5L48.5 17.9L44 15.7L48.5 13.4L50.8 8.9Z" fill="#22d3ee"/>
  </g>
</svg>
